<svg width="20" height="20" viewBox="0 0 20 20" fill="none" xmlns="http://www.w3.org/2000/svg"><path d="M10 19.687C4.658 19.687.312 15.341.312 10 .313 4.658 4.659.312 10 .312c5.342 0 9.688 4.346 9.688 9.688 0 5.341-4.346 9.687-9.688 9.687z" fill="#fff"/><path fill-rule="evenodd" clip-rule="evenodd" d="M0 10C0 4.477 4.477 0 10 0s10 4.477 10 10-4.477 10-10 10S0 15.523 0 10zm19.375 0c0-5.169-4.206-9.374-9.375-9.374C4.83.626.625 4.83.625 10S4.831 19.376 10 19.376c5.17 0 9.375-4.206 9.375-9.375z" fill="#3D5A96"/><path fill-rule="evenodd" clip-rule="evenodd" d="M11.325 15v-5h1.479L13 8.275h-1.675l.002-.863c0-.45.046-.69.738-.69h.925V5h-1.48c-1.777 0-2.402.836-2.402 2.241v1.035H8v1.723h1.108v5h2.217z" fill="#3D5A96"/></svg>