<svg width="20" height="20" viewBox="0 0 20 20" fill="none" xmlns="http://www.w3.org/2000/svg">
<path d="M10 19.6872C4.65813 19.6872 0.3125 15.3415 0.3125 9.99965C0.3125 4.65776 4.65813 0.312126 10 0.312126C15.3419 0.312126 19.6875 4.65776 19.6875 9.99965C19.6875 15.3415 15.3419 19.6872 10 19.6872Z" fill="white"/>
<path fill-rule="evenodd" clip-rule="evenodd" d="M0 10C0 4.47689 4.47688 0 10 0C15.5231 0 20 4.47689 20 10C20 15.5232 15.5231 20.0001 10 20.0001C4.47688 20.0001 0 15.5232 0 10ZM19.375 10.0007C19.375 4.83129 15.1694 0.625656 10 0.625656C4.83063 0.625656 0.625 4.83129 0.625 10.0007C0.625 15.1701 4.83063 19.3757 10 19.3757C15.1694 19.3757 19.375 15.1701 19.375 10.0007Z" fill="#3D5A96"/>
<path fill-rule="evenodd" clip-rule="evenodd" d="M11.3248 14.9997V9.99908H12.804L13 8.27584H11.3248L11.3273 7.41335C11.3273 6.9639 11.3731 6.72308 12.0648 6.72308H12.9895V4.99965H11.5101C9.73313 4.99965 9.10767 5.8356 9.10767 7.24141V8.27604H8V9.99927H9.10767V14.9997H11.3248Z" fill="#3D5A96"/>
</svg>
